# xmcd CD database file
#
# Track frame offsets:
#	150
#	35622
#	68327
#	92135
#	113580
#	159820
#
# Disc length: 2453 seconds
#
# Revision: 0
# Processed by: cddbd v1.4PL0 Copyright (c) Steve Scherf et al.
# Submitted via: CDex 1.51
#
DISCID=3a099306
DTITLE=Roscoe Mitchell - Snurdy McGurdy and her Dancin' Shoes
DYEAR=1980
DGENRE=Jazz
TTITLE0=Sing Song
TTITLE1=CYP
TTITLE2=Stomp and the Far East Blues
TTITLE3=March (Composition 40 Q)
TTITLE4=Round
TTITLE5=Snurdy McGurdy and Her Dancin' Shoes
EXTD=YEAR: 1980
EXTT0=
EXTT1=
EXTT2=
EXTT3=
EXTT4=
EXTT5=
PLAYORDER=
